<svg width="39" height="23" viewBox="0 0 39 23" fill="none" xmlns="http://www.w3.org/2000/svg">
<path id="Vector" d="M9.4664 5.99872H16.6335V6.57024H10.1234V10.8717H16.2453V11.4432H10.1234V16.1657H16.7082V16.7373H9.4664V5.99872ZM17.2756 5.99872H18.0371L21.4116 10.7213L24.8608 5.99872L29.5523 0L21.8447 11.2176L25.8165 16.7373H25.0251L21.4116 11.7139L17.7833 16.7373H17.0068L21.0085 11.2176L17.2756 5.99872ZM26.1002 6.57024V5.99872H34.2677V6.57024H30.505V16.7373H29.848V6.57024H26.1002ZM0.5 5.99872H1.32124L12.6456 23L7.96578 16.7373L1.18685 6.81088L1.15699 16.7373H0.5L0.5 5.99872ZM34.2015 15.9933C34.0673 15.9933 33.9666 15.8889 33.9666 15.7541C33.9666 15.6192 34.0673 15.5149 34.2015 15.5149C34.3373 15.5149 34.4364 15.6192 34.4364 15.7541C34.4364 15.8889 34.3373 15.9933 34.2015 15.9933ZM34.8471 15.364H35.1986C35.2034 15.555 35.3425 15.6835 35.547 15.6835C35.7755 15.6835 35.9049 15.5454 35.9049 15.287V13.6496H36.2629V15.2886C36.2629 15.7541 35.9944 16.0222 35.5502 16.0222C35.1331 16.0222 34.8471 15.7621 34.8471 15.364ZM36.7311 15.3431H37.0858C37.1162 15.5631 37.3303 15.7027 37.6387 15.7027C37.9263 15.7027 38.1373 15.5534 38.1373 15.348C38.1373 15.1714 38.003 15.0654 37.6978 14.9932L37.4006 14.921C36.9835 14.823 36.7934 14.6208 36.7934 14.2805C36.7934 13.8679 37.129 13.5934 37.6323 13.5934C38.1005 13.5934 38.4425 13.8679 38.4632 14.258H38.1149C38.0813 14.0445 37.896 13.9112 37.6275 13.9112C37.3447 13.9112 37.1561 14.0477 37.1561 14.2564C37.1561 14.4217 37.2776 14.5164 37.578 14.5871L37.8321 14.6497C38.305 14.7604 38.5 14.9531 38.5 15.3014C38.5 15.7445 38.158 16.0222 37.6115 16.0222C37.1002 16.0222 36.7566 15.7573 36.7311 15.3431Z" fill="#F5C342"/>
</svg>
