<svg width="19" height="11" viewBox="0 0 19 11" fill="none" xmlns="http://www.w3.org/2000/svg">
<path id="Vector" d="M15.35 3.22198C14.675 2.98568 14.0793 2.5608 13.631 1.99606C13.1369 1.36684 12.5079 0.860832 11.7919 0.516738C11.0758 0.172645 10.2919 -0.000416102 9.5 0.0107951C8.43473 -0.0658932 7.38013 0.268097 6.54621 0.946254C5.71229 1.62441 5.16024 2.59697 5 3.67027C5.31561 3.13346 5.79061 2.71228 6.35665 2.46732C6.9227 2.22237 7.5506 2.16627 8.15 2.30711C8.82382 2.55029 9.41862 2.97765 9.869 3.54218C10.3658 4.16637 10.9961 4.66715 11.7119 5.00642C12.4278 5.34568 13.2103 5.51449 14 5.5C15.0653 5.57669 16.1199 5.2427 16.9538 4.56454C17.7877 3.88639 18.3398 2.91382 18.5 1.84053C18.1901 2.38375 17.7166 2.8113 17.1494 3.06005C16.5822 3.3088 15.9514 3.36557 15.35 3.22198ZM3.65 7.77802C4.32495 8.01432 4.92072 8.4392 5.369 9.00394C5.86306 9.63316 6.49215 10.1392 7.20815 10.4833C7.92415 10.8274 8.70809 11.0004 9.5 10.9892C10.5653 11.0659 11.6199 10.7319 12.4538 10.0537C13.2877 9.37559 13.8398 8.40303 14 7.32973C13.6844 7.86654 13.2094 8.28772 12.6433 8.53268C12.0773 8.77763 11.4494 8.83372 10.85 8.69289C10.1762 8.44971 9.58138 8.02235 9.131 7.45782C8.6329 6.83517 8.00236 6.33549 7.28682 5.99637C6.57128 5.65725 5.78939 5.48754 5 5.5C3.93473 5.42331 2.88013 5.7573 2.04621 6.43546C1.21229 7.11362 0.660238 8.08618 0.5 9.15947C0.809876 8.61625 1.28337 8.1887 1.85057 7.93995C2.41777 7.6912 3.04863 7.63443 3.65 7.77802Z" fill="#F5C342"/>
</svg>
