<svg width="23" height="21" viewBox="0 0 23 21" fill="none" xmlns="http://www.w3.org/2000/svg">
<path id="Vector" d="M16.218 0.000502413C16.0394 -0.00966857 15.8864 0.135851 15.8799 0.322319C15.8702 0.508787 16.0102 0.668397 16.1888 0.678568H16.2047C16.3768 0.678568 16.5197 0.535856 16.5262 0.352778C16.536 0.16631 16.3966 0.00728307 16.218 0.000502413ZM7.27808 0.0342732C7.09948 0.0139313 6.93667 0.146445 6.91719 0.332913C6.89446 0.519381 7.02463 0.685295 7.20324 0.709028H7.23876C7.40113 0.709028 7.54085 0.583956 7.56033 0.41105C7.58306 0.224582 7.45344 0.0546152 7.27808 0.0342732ZM14.9463 0.252128C14.9039 0.250645 14.8604 0.258353 14.8182 0.275304C14.6526 0.343111 14.568 0.539353 14.633 0.715649C14.6849 0.847872 14.8088 0.932842 14.9387 0.932842C14.9776 0.932842 15.0164 0.925956 15.0554 0.909004C15.221 0.841198 15.3055 0.644876 15.2406 0.47197C15.1919 0.339747 15.0735 0.256578 14.9463 0.252128ZM5.93789 0.291196C5.89608 0.298295 5.85491 0.314108 5.81675 0.339535C5.66412 0.437855 5.61848 0.648346 5.7159 0.807692C5.77435 0.909401 5.88147 0.966613 5.98863 0.966613C6.04709 0.966613 6.10856 0.949609 6.16052 0.912315C6.31315 0.813995 6.35871 0.604166 6.26454 0.444821C6.1939 0.327854 6.06332 0.269901 5.93789 0.291196ZM8.48762 0.43224C8.36158 0.426677 8.23909 0.499675 8.18064 0.62427C8.1027 0.793786 8.17429 0.997153 8.33666 1.07852C8.37888 1.09886 8.42757 1.10898 8.47303 1.10898C8.59643 1.10898 8.71339 1.03768 8.7686 0.915626C8.84329 0.746109 8.77494 0.546054 8.61257 0.464686C8.57197 0.444344 8.52963 0.434094 8.48762 0.43224ZM17.3692 0.523619C17.2864 0.522772 17.2035 0.554847 17.1402 0.620959C17.0103 0.753181 17.0104 0.966825 17.137 1.09905C17.1987 1.16685 17.2828 1.20036 17.3673 1.20036C17.4484 1.20036 17.5333 1.17017 17.595 1.10236C17.7216 0.973526 17.7248 0.756492 17.5981 0.62427C17.5348 0.558158 17.452 0.524467 17.3692 0.523619ZM13.7317 0.883842C13.6898 0.891258 13.6487 0.907415 13.6105 0.932842C13.4612 1.03455 13.4154 1.24496 13.5129 1.40431C13.5746 1.50263 13.6816 1.55661 13.7888 1.55661C13.8472 1.55661 13.9092 1.5396 13.9645 1.50231C14.1138 1.40399 14.1557 1.19416 14.0615 1.03482C13.9884 0.917851 13.8573 0.861592 13.7317 0.883842ZM9.59504 1.12156C9.52491 1.11938 9.456 1.14097 9.3986 1.18309C9.34121 1.22521 9.29842 1.2856 9.27665 1.35523C9.25487 1.42485 9.25527 1.49996 9.27779 1.56933C9.30031 1.6387 9.34375 1.69858 9.40159 1.74003H9.40222L9.40286 1.74069C9.93671 2.13283 10.4967 2.6403 11.0633 3.22727C10.4101 3.95399 9.76004 4.78707 9.12949 5.70645C7.88405 5.82119 6.72428 6.02693 5.67594 6.3024C5.47755 5.48817 5.34397 4.72313 5.29666 4.04439C5.29184 3.95876 5.25611 3.87822 5.19668 3.81899C5.13724 3.75977 5.05851 3.72626 4.97635 3.72523C4.93099 3.72459 4.886 3.73389 4.84429 3.75252C4.80258 3.77114 4.76507 3.79869 4.73417 3.83337C4.70328 3.86806 4.67969 3.90912 4.66493 3.9539C4.65016 3.99869 4.64454 4.04621 4.64844 4.0934C4.69925 4.82234 4.83903 5.62782 5.04549 6.47722C4.40487 6.67266 3.81332 6.89537 3.28605 7.14469C3.25715 7.15777 3.23023 7.17517 3.20613 7.19634C3.18642 7.20169 3.16621 7.20201 3.14715 7.21157C2.98478 7.28955 2.91643 7.49299 2.99112 7.66251C3.04633 7.78456 3.16328 7.85586 3.28668 7.85586C3.33215 7.85586 3.38083 7.84575 3.42305 7.8254C3.44092 7.81645 3.45313 7.80128 3.46872 7.78965C3.49811 7.78471 3.5267 7.77557 3.55371 7.7625C4.04463 7.53036 4.60238 7.32064 5.21166 7.13476C5.51241 8.20642 5.9251 9.34473 6.44467 10.5125C5.98725 11.5412 5.60806 12.5487 5.31949 13.5062C4.66925 13.3128 4.07313 13.0926 3.55434 12.8473H3.55371C3.5535 12.8471 3.55329 12.8469 3.55307 12.8467C3.55244 12.8464 3.5518 12.8463 3.55117 12.846C3.51266 12.8276 3.47108 12.8173 3.42876 12.8155C3.36438 12.8131 3.30077 12.8307 3.24601 12.8662C3.19125 12.9016 3.14782 12.9532 3.12123 13.0145C3.09465 13.0757 3.08611 13.1438 3.09671 13.2102C3.10731 13.2765 3.13657 13.3381 3.18076 13.387V13.3877C3.2091 13.419 3.2429 13.4444 3.28034 13.4625C3.28276 13.4637 3.28423 13.466 3.28668 13.4671C3.2922 13.4698 3.2982 13.4702 3.30381 13.4724C3.85113 13.73 4.46858 13.9587 5.13682 14.1584C5.04381 14.508 4.9589 14.8527 4.89073 15.1855C4.88066 15.2294 4.87912 15.275 4.88617 15.3196C4.89323 15.3642 4.90875 15.4068 4.93183 15.4451C4.9549 15.4833 4.98506 15.5163 5.02054 15.5422C5.05601 15.5681 5.09608 15.5863 5.1384 15.5958C5.18072 15.6053 5.22442 15.6059 5.26695 15.5975C5.30948 15.5891 5.34997 15.5719 5.38604 15.5469C5.42212 15.5219 5.45305 15.4897 5.47702 15.4521C5.50099 15.4145 5.51751 15.3722 5.52562 15.3278C5.59135 15.007 5.67415 14.6728 5.76474 14.3332C6.70247 14.5744 7.73253 14.7548 8.82758 14.8696C9.5512 15.9691 10.3072 16.9495 11.0659 17.7931C10.7392 18.1319 10.4146 18.4494 10.0961 18.7254C10.0628 18.7537 10.0351 18.7886 10.0148 18.8281C9.99441 18.8675 9.98176 18.9109 9.97756 18.9555C9.97335 19.0001 9.97766 19.0452 9.99024 19.088C10.0028 19.1309 10.0234 19.1707 10.0509 19.2052C10.0783 19.2398 10.112 19.2682 10.15 19.289C10.1881 19.3099 10.2297 19.3226 10.2725 19.3265C10.3153 19.3304 10.3584 19.3254 10.3993 19.3118C10.4402 19.2982 10.4782 19.2762 10.5109 19.2472C10.8435 18.9589 11.1803 18.6309 11.5175 18.2818C11.9956 18.7776 12.4719 19.2183 12.9389 19.5902C12.9411 19.5922 12.9422 19.595 12.9446 19.5969V19.5949C12.9784 19.6231 13.0172 19.644 13.0589 19.6563C13.1005 19.6686 13.1441 19.6721 13.187 19.6666C13.23 19.6611 13.2714 19.6467 13.309 19.6242C13.3465 19.6017 13.3794 19.5716 13.4056 19.5357C13.4319 19.4998 13.451 19.4588 13.4618 19.415C13.4727 19.3713 13.475 19.3257 13.4688 19.281C13.4625 19.2363 13.4478 19.1934 13.4254 19.1547C13.403 19.116 13.3734 19.0824 13.3384 19.0559C12.8941 18.7024 12.4352 18.277 11.9716 17.7951C12.7305 16.9523 13.4874 15.9728 14.2118 14.8736C15.3118 14.7598 16.3439 14.5769 17.2861 14.3359C17.4409 14.9146 17.5614 15.4692 17.6438 15.99C17.6578 16.0788 17.7049 16.1581 17.7749 16.2106C17.8096 16.2366 17.8488 16.2552 17.8904 16.2653C17.9319 16.2755 17.975 16.277 18.0171 16.2698C18.0592 16.2625 18.0995 16.2467 18.1357 16.2233C18.172 16.1998 18.2035 16.169 18.2284 16.1329C18.2532 16.0967 18.271 16.0557 18.2808 16.0124C18.2905 15.969 18.2919 15.924 18.285 15.8801C18.199 15.3359 18.0751 14.7614 17.9165 14.1657C18.4678 14.002 18.9858 13.8195 19.4565 13.6161C19.4965 13.5995 19.5329 13.5747 19.5637 13.5433C19.5944 13.5119 19.6189 13.4744 19.6356 13.433C19.6523 13.3916 19.661 13.3471 19.6612 13.3022C19.6613 13.2573 19.6529 13.2128 19.6364 13.1713C19.62 13.1298 19.5958 13.0921 19.5652 13.0604C19.5347 13.0288 19.4984 13.0038 19.4585 12.9869C19.4187 12.97 19.376 12.9616 19.3329 12.962C19.2899 12.9625 19.2474 12.9719 19.2079 12.9897C18.76 13.1832 18.2617 13.3584 17.7275 13.5161C17.4374 12.5529 17.0602 11.5423 16.5992 10.5072C17.1198 9.33798 17.5311 8.20117 17.8328 7.12813C18.204 7.24075 18.5628 7.35907 18.892 7.48968C18.9318 7.50577 18.9742 7.51352 19.0169 7.51249C19.0595 7.51147 19.1015 7.50168 19.1405 7.48369C19.1796 7.46571 19.2148 7.43988 19.2443 7.40767C19.2737 7.37547 19.2968 7.33752 19.3122 7.296C19.3276 7.25447 19.3351 7.21019 19.3341 7.16567C19.3331 7.12115 19.3237 7.07727 19.3065 7.03654C19.2893 6.9958 19.2645 6.95901 19.2337 6.92825C19.2028 6.8975 19.1665 6.87339 19.1267 6.85731C19.1258 6.85693 19.1251 6.85635 19.1242 6.85598C19.1238 6.85582 19.1233 6.85614 19.1229 6.85598C18.7739 6.71753 18.3965 6.59275 18.0072 6.47457C18.1502 5.88953 18.2619 5.32545 18.332 4.79464V4.79397V4.79331C18.3389 4.74565 18.3361 4.69698 18.3236 4.65056C18.3111 4.60414 18.2892 4.56104 18.2595 4.52413C18.2298 4.48722 18.1929 4.45735 18.1513 4.43651C18.1096 4.41567 18.0642 4.40435 18.018 4.40329C17.9381 4.40161 17.8604 4.43073 17.7998 4.4851C17.7392 4.53946 17.6999 4.61525 17.6895 4.69796C17.6894 4.69846 17.6889 4.69878 17.6888 4.69928V4.69995C17.6888 4.70017 17.6888 4.70039 17.6888 4.70061C17.623 5.19974 17.5172 5.73618 17.3806 6.29512C16.3299 6.02054 15.1619 5.82013 13.9143 5.70645C13.2819 4.78541 12.63 3.9476 11.9748 3.22065C12.4443 2.73282 12.9086 2.30248 13.3581 1.94663C13.4129 1.90437 13.4536 1.84518 13.4745 1.77743C13.4953 1.70968 13.4952 1.63681 13.4741 1.56913C13.4531 1.50146 13.4122 1.44241 13.3572 1.40035C13.3022 1.35829 13.236 1.33535 13.1678 1.33478C13.0948 1.33427 13.0237 1.35946 12.9661 1.4063C12.4902 1.78306 12.0039 2.23271 11.5162 2.73859C10.9292 2.13207 10.3448 1.6028 9.77707 1.18579C9.72399 1.1457 9.66053 1.12331 9.59504 1.12156ZM5.19961 1.34207C5.07373 1.34699 4.95593 1.4277 4.90722 1.55992C4.84227 1.73283 4.92673 1.92981 5.09559 1.99762C5.13456 2.01457 5.17341 2.02146 5.20913 2.02146C5.34227 2.02146 5.4655 1.93656 5.51421 1.80095C5.57915 1.62804 5.4947 1.43106 5.32583 1.36325C5.28443 1.34715 5.24158 1.34042 5.19961 1.34207ZM18.0085 1.71553C17.9671 1.70891 17.9234 1.71095 17.8804 1.72281C17.705 1.77028 17.6016 1.95301 17.6438 2.1327C17.6828 2.28866 17.8155 2.39095 17.9584 2.39095C17.9844 2.39095 18.0136 2.38713 18.0396 2.38035C18.2117 2.33289 18.3191 2.15023 18.2736 1.96716C18.2395 1.83239 18.1326 1.7354 18.0085 1.71553ZM4.98206 2.6684C4.80345 2.65823 4.6474 2.79771 4.63766 2.98757C4.62467 3.17403 4.76088 3.33298 4.94274 3.34315C4.94923 3.34654 4.95591 3.34646 4.9624 3.34646C5.13127 3.34646 5.27415 3.20765 5.28714 3.02796C5.29688 2.84149 5.16067 2.67857 4.98206 2.6684ZM18.1017 3.05511C17.9231 3.05511 17.7802 3.20759 17.7802 3.39745C17.7802 3.58392 17.9263 3.73317 18.1049 3.73317C18.2835 3.73317 18.4296 3.58061 18.4296 3.39414C18.4296 3.20767 18.2836 3.05511 18.1017 3.05511ZM11.52 3.71132C12.0364 4.28652 12.554 4.9373 13.0632 5.64487C12.5636 5.6162 12.0572 5.59653 11.5384 5.59653C11.0061 5.59653 10.487 5.61745 9.97496 5.64752C10.4847 4.93719 11.0028 4.28899 11.52 3.71132ZM11.5384 6.27459C12.2313 6.27459 12.9075 6.30337 13.563 6.35538C14.0145 7.02779 14.4546 7.74633 14.874 8.50479C15.2443 9.17468 15.5813 9.84397 15.8837 10.5039C15.579 11.1698 15.2415 11.8443 14.8676 12.5202C14.8661 12.5231 14.8646 12.5259 14.8632 12.5288C14.8615 12.5319 14.8598 12.535 14.8581 12.5381C14.531 13.1289 14.1903 13.6918 13.8427 14.2313C13.1006 14.2989 12.3306 14.3359 11.5384 14.3359C10.7353 14.3359 9.95334 14.2988 9.2018 14.2293C8.85309 13.6878 8.5104 13.1258 8.18254 12.5328C7.80636 11.8523 7.47175 11.1741 7.16582 10.5039C7.47047 9.83868 7.80634 9.16498 8.18 8.48956C8.18064 8.48846 8.18128 8.48736 8.1819 8.48625C8.18298 8.4845 8.18403 8.48273 8.18508 8.48096C8.5987 7.73334 9.03295 7.02613 9.4777 6.362C10.1453 6.30783 10.8318 6.27459 11.5384 6.27459ZM14.3983 6.43881C15.4046 6.55415 16.3483 6.72699 17.2049 6.94935C16.9573 7.82613 16.6314 8.75336 16.2288 9.71061C15.982 9.19816 15.7223 8.6832 15.4366 8.16642C15.1026 7.56243 14.7532 6.99131 14.3983 6.43881ZM8.63921 6.4461C8.29143 6.98857 7.94996 7.55002 7.62249 8.14192C7.62099 8.14457 7.61943 8.14729 7.61805 8.14987C7.61769 8.15051 7.61778 8.15121 7.61741 8.15185C7.32967 8.67204 7.06591 9.19077 6.81761 9.70664C6.41911 8.75598 6.08898 7.82999 5.84339 6.95928C6.69619 6.73631 7.63659 6.56307 8.63921 6.4461ZM20.2214 7.38969C20.0946 7.37746 19.967 7.44322 19.9037 7.56782C19.8192 7.73394 19.8809 7.93723 20.04 8.02538C20.0887 8.0525 20.1409 8.06577 20.1929 8.06577C20.3065 8.06577 20.4199 8.00159 20.4783 7.88632C20.5627 7.72359 20.501 7.51691 20.3451 7.42876C20.3053 7.40672 20.2637 7.39377 20.2214 7.38969ZM2.21605 7.85653C2.13406 7.84169 2.04592 7.85923 1.97123 7.91347C1.8251 8.02196 1.78993 8.23238 1.89385 8.38494C1.9588 8.47987 2.05893 8.53062 2.1596 8.53062C2.22455 8.53062 2.2896 8.51046 2.34481 8.46639L2.34798 8.4697C2.49411 8.36121 2.52991 8.14748 2.42599 7.99492C2.37404 7.91864 2.29805 7.87136 2.21605 7.85653ZM21.2458 8.13795C21.163 8.14473 21.0829 8.18462 21.0244 8.25582C20.9075 8.39821 20.9267 8.61185 21.0631 8.7339C21.1248 8.78815 21.1997 8.81535 21.2711 8.81535C21.3653 8.81535 21.4561 8.77488 21.521 8.69351C21.6347 8.55112 21.6181 8.3374 21.4817 8.21873C21.4135 8.15771 21.3286 8.13117 21.2458 8.13795ZM11.5384 8.47764C10.4622 8.47764 9.58996 9.38829 9.58996 10.5118C9.58996 11.6354 10.4622 12.546 11.5384 12.546C12.6146 12.546 13.4869 11.6354 13.4869 10.5118C13.4869 9.38829 12.6146 8.47764 11.5384 8.47764ZM1.16952 8.78423C1.08712 8.79779 1.01027 8.84436 0.958316 8.92064C0.854399 9.0732 0.887025 9.28693 1.03316 9.39542C1.08836 9.4361 1.15659 9.45965 1.22153 9.45965C1.3222 9.45965 1.42242 9.40882 1.48412 9.31728C1.59128 9.16471 1.55597 8.9543 1.41308 8.84581C1.34001 8.78987 1.25193 8.77067 1.16952 8.78423ZM22.0716 9.18286C22.0296 9.18466 21.9872 9.19496 21.9466 9.2153C21.7842 9.29328 21.7127 9.49342 21.7874 9.66293C21.8426 9.78838 21.9596 9.8596 22.083 9.8596C22.1284 9.8596 22.1739 9.84948 22.2194 9.82914C22.3817 9.75116 22.4532 9.54772 22.3785 9.3782C22.3201 9.25106 22.1976 9.17745 22.0716 9.18286ZM0.809265 10.0424C0.631303 10.0525 0.491748 10.2077 0.50038 10.3966C0.507525 10.5791 0.650191 10.7204 0.825121 10.7204H0.838441C1.01705 10.7136 1.15643 10.5546 1.14669 10.3681C1.1402 10.1783 0.987872 10.0356 0.809265 10.0424ZM22.1439 10.5026C22.0181 10.5151 21.9044 10.6054 21.8654 10.7376V10.741C21.8135 10.9172 21.9077 11.1071 22.0798 11.1647C22.109 11.1749 22.1445 11.1786 22.1737 11.1786C22.3133 11.1786 22.4403 11.0867 22.4857 10.9409C22.5377 10.7646 22.4435 10.5748 22.2714 10.5171C22.2291 10.5027 22.1858 10.4984 22.1439 10.5026ZM1.34648 11.276C1.26367 11.2667 1.17782 11.2905 1.108 11.3482C0.968362 11.4668 0.945504 11.6805 1.05916 11.8263C1.12086 11.9076 1.21481 11.9514 1.31223 11.9514C1.38368 11.9514 1.45547 11.9274 1.51393 11.8766C1.65357 11.7613 1.67571 11.5482 1.5653 11.4025C1.50847 11.3279 1.42929 11.2853 1.34648 11.276ZM6.81507 11.2985C7.0658 11.8203 7.3289 12.3447 7.61995 12.8712C7.61995 12.8714 7.61995 12.8716 7.61995 12.8718C7.86004 13.3061 8.10794 13.7238 8.3595 14.1319C7.50233 14.0213 6.69275 13.8698 5.94867 13.6803C6.18015 12.9169 6.47015 12.1179 6.81507 11.2985ZM16.23 11.2985C16.5761 12.1203 16.8642 12.9202 17.0964 13.6856C16.3476 13.875 15.5391 14.0297 14.6767 14.1392C14.9292 13.7304 15.1785 13.3129 15.4194 12.8778C15.4275 12.8643 15.433 12.8542 15.4391 12.8414C15.7244 12.3249 15.9836 11.8106 16.23 11.2985ZM21.4697 11.6177C21.3868 11.6155 21.3031 11.646 21.2382 11.7104C21.1083 11.8392 21.1053 12.0568 21.2255 12.1924C21.2904 12.2602 21.375 12.2937 21.4627 12.2937C21.5439 12.2937 21.6249 12.2634 21.6866 12.2024C21.8165 12.0735 21.8195 11.8566 21.6961 11.721C21.6344 11.6549 21.5525 11.6198 21.4697 11.6177ZM2.21796 12.1739C2.13637 12.1904 2.06089 12.2396 2.01055 12.3176C1.90988 12.4735 1.95187 12.684 2.10125 12.7891C2.15646 12.8263 2.21841 12.8467 2.28011 12.8467C2.38728 12.8467 2.48797 12.792 2.54967 12.6937C2.65034 12.5377 2.61153 12.3279 2.46215 12.2262C2.38746 12.1737 2.29955 12.1574 2.21796 12.1739ZM20.3743 12.4169C20.3321 12.4223 20.2902 12.4362 20.2512 12.46C20.0986 12.5515 20.0436 12.7615 20.1345 12.9208C20.193 13.0327 20.3032 13.0903 20.4136 13.0903C20.4688 13.0903 20.5273 13.0772 20.576 13.0466C20.7319 12.9517 20.7868 12.7444 20.6959 12.5851C20.6301 12.4631 20.5008 12.4007 20.3743 12.4169ZM9.67622 14.9424C10.2831 14.9852 10.9018 15.014 11.5384 15.014C12.1621 15.014 12.7691 14.9869 13.3644 14.9458C12.7598 15.8232 12.1391 16.6148 11.52 17.3051C10.9014 16.6142 10.2804 15.82 9.67622 14.9424ZM5.03407 16.2569C4.85546 16.2365 4.69266 16.3723 4.67318 16.5588C4.65694 16.7453 4.78379 16.9113 4.9624 16.9316C4.97539 16.9316 4.98493 16.9349 4.99792 16.9349C5.16029 16.9349 5.30325 16.8066 5.31949 16.6303C5.33897 16.4439 5.21268 16.2772 5.03407 16.2569ZM18.0719 16.7588C17.8933 16.769 17.7571 16.9286 17.7668 17.115C17.7766 17.2947 17.9195 17.4335 18.0916 17.4335H18.1112C18.2899 17.4234 18.4261 17.2638 18.4163 17.074C18.4066 16.8875 18.2505 16.7452 18.0719 16.7588ZM4.9364 17.6097C4.75454 17.6198 4.6184 17.7795 4.62815 17.9659C4.63464 18.1456 4.78077 18.2877 4.95289 18.2877H4.96874C5.14735 18.2776 5.2842 18.1186 5.27446 17.9322C5.26796 17.7457 5.115 17.5995 4.9364 17.6097ZM18.1017 18.1116C17.9231 18.0879 17.7572 18.2199 17.7345 18.403C17.7118 18.5894 17.835 18.7592 18.0136 18.7864C18.0266 18.7864 18.0431 18.7897 18.0561 18.7897C18.2152 18.7897 18.3582 18.6645 18.3776 18.495C18.4036 18.3085 18.2771 18.1387 18.1017 18.1116ZM5.20025 18.9393C5.15823 18.937 5.11498 18.9431 5.07276 18.9592C4.9039 19.0202 4.81642 19.2166 4.87487 19.3929C4.92358 19.5319 5.04681 19.6167 5.17995 19.6167C5.21567 19.6167 5.25459 19.6104 5.29031 19.5969C5.45918 19.5358 5.54673 19.3387 5.48503 19.1658C5.44119 19.031 5.32629 18.9463 5.20025 18.9393ZM9.58425 19.2711C9.50226 19.2558 9.41475 19.2728 9.34006 19.3254C9.19393 19.4339 9.15821 19.6443 9.25888 19.7968C9.32383 19.8918 9.4246 19.9425 9.52527 19.9425C9.59022 19.9425 9.65519 19.9256 9.71364 19.8849C9.85978 19.7764 9.8955 19.5661 9.79483 19.4101C9.74287 19.3338 9.66625 19.2863 9.58425 19.2711ZM17.7129 19.4002C17.5872 19.383 17.4583 19.4443 17.3901 19.5664C17.3024 19.7291 17.3547 19.9356 17.5106 20.0306C17.5626 20.0611 17.6178 20.0749 17.673 20.0749C17.7866 20.0749 17.8935 20.0139 17.9552 19.9054C18.0429 19.7427 17.9912 19.5354 17.8353 19.4439C17.7964 19.4202 17.7548 19.4059 17.7129 19.4002ZM14.2575 19.7353C14.1319 19.7214 14.0042 19.7867 13.9385 19.9087C13.854 20.0715 13.9088 20.2781 14.0647 20.3696C14.1166 20.3967 14.1687 20.41 14.2239 20.41C14.3375 20.41 14.4483 20.3491 14.5067 20.2372C14.5944 20.0744 14.539 19.8678 14.3799 19.7763C14.3409 19.7534 14.2993 19.7399 14.2575 19.7353ZM8.39375 19.9458C8.35148 19.9471 8.30876 19.9568 8.26816 19.9763C8.10579 20.0543 8.03427 20.2577 8.10896 20.4272C8.16417 20.5527 8.28113 20.6239 8.40453 20.6239C8.44999 20.6239 8.49543 20.6138 8.5409 20.5934C8.70327 20.5154 8.77479 20.312 8.7001 20.1425C8.64408 20.0153 8.52055 19.9418 8.39375 19.9458ZM5.86622 20.0286C5.78422 20.0447 5.70788 20.0934 5.65755 20.1696C5.55688 20.3222 5.59253 20.536 5.74191 20.6411C5.79711 20.6818 5.86224 20.702 5.92394 20.702C6.02786 20.702 6.12792 20.6507 6.19286 20.5524C6.29353 20.3998 6.25464 20.1901 6.10851 20.0816C6.03544 20.029 5.94822 20.0125 5.86622 20.0286ZM16.7298 20.2511C16.6877 20.2476 16.6441 20.2524 16.6011 20.2676C16.4322 20.3253 16.3378 20.5151 16.393 20.6947C16.4385 20.8371 16.5655 20.9291 16.7019 20.9291C16.7344 20.9291 16.7703 20.9221 16.8028 20.9119C16.9749 20.8543 17.0654 20.6611 17.0102 20.4848C16.9688 20.3501 16.8562 20.2614 16.7298 20.2511ZM15.3706 20.2524C15.2453 20.2737 15.1391 20.3706 15.1074 20.5054C15.0619 20.6884 15.1693 20.8711 15.3414 20.9186V20.9152C15.3674 20.9254 15.3966 20.9291 15.4226 20.9291C15.5655 20.9291 15.6982 20.8241 15.7372 20.6716C15.7794 20.4885 15.6754 20.3052 15.5 20.2577C15.4562 20.2467 15.4124 20.2453 15.3706 20.2524ZM7.13474 20.3252C6.95613 20.3422 6.82294 20.505 6.83918 20.6914C6.85541 20.8677 6.9983 21 7.16392 21H7.19309C7.3717 20.983 7.50497 20.817 7.48549 20.6305C7.4725 20.444 7.31335 20.3083 7.13474 20.3252Z" fill="#F5C342"/>
</svg>
