<svg width="40" height="40" viewBox="0 0 40 40" fill="none" xmlns="http://www.w3.org/2000/svg">
<rect width="39.8661" height="39.8661" rx="10" fill="white"/>
<path d="M19.9809 23.3852L16.1009 27.2652C15.6312 27.7186 15.0038 27.972 14.3509 27.972C13.6981 27.972 13.0707 27.7186 12.6009 27.2652C12.3705 27.0357 12.1877 26.763 12.063 26.4627C11.9382 26.1624 11.874 25.8404 11.874 25.5152C11.874 25.19 11.9382 24.868 12.063 24.5677C12.1877 24.2674 12.3705 23.9947 12.6009 23.7652L16.4809 19.8852C16.6692 19.6969 16.775 19.4415 16.775 19.1752C16.775 18.9089 16.6692 18.6535 16.4809 18.4652C16.2926 18.2769 16.0372 18.1711 15.7709 18.1711C15.5046 18.1711 15.2492 18.2769 15.0609 18.4652L11.1809 22.3552C10.3993 23.206 9.97655 24.3259 10.001 25.481C10.0255 26.636 10.4952 27.737 11.3122 28.554C12.1291 29.3709 13.2301 29.8407 14.3852 29.8651C15.5403 29.8896 16.6601 29.4669 17.5109 28.6852L21.4009 24.8052C21.5892 24.6169 21.695 24.3615 21.695 24.0952C21.695 23.8289 21.5892 23.5735 21.4009 23.3852C21.2126 23.1969 20.9572 23.0911 20.6909 23.0911C20.4246 23.0911 20.1692 23.1969 19.9809 23.3852ZM28.5609 11.3052C27.7197 10.4692 26.5819 10 25.3959 10C24.21 10 23.0722 10.4692 22.2309 11.3052L18.3409 15.1852C18.2477 15.2785 18.1737 15.3891 18.1233 15.511C18.0728 15.6328 18.0468 15.7634 18.0468 15.8952C18.0468 16.0271 18.0728 16.1576 18.1233 16.2795C18.1737 16.4013 18.2477 16.512 18.3409 16.6052C18.4342 16.6984 18.5449 16.7724 18.6667 16.8229C18.7885 16.8733 18.9191 16.8993 19.0509 16.8993C19.1828 16.8993 19.3134 16.8733 19.4352 16.8229C19.557 16.7724 19.6677 16.6984 19.7609 16.6052L23.6409 12.7252C24.1107 12.2718 24.7381 12.0185 25.3909 12.0185C26.0438 12.0185 26.6712 12.2718 27.1409 12.7252C27.3713 12.9547 27.5541 13.2274 27.6789 13.5277C27.8036 13.828 27.8678 14.15 27.8678 14.4752C27.8678 14.8004 27.8036 15.1224 27.6789 15.4227C27.5541 15.723 27.3713 15.9957 27.1409 16.2252L23.2609 20.1052C23.1672 20.1982 23.0928 20.3088 23.042 20.4306C22.9913 20.5525 22.9651 20.6832 22.9651 20.8152C22.9651 20.9472 22.9913 21.0779 23.042 21.1998C23.0928 21.3216 23.1672 21.4322 23.2609 21.5252C23.3539 21.6189 23.4645 21.6933 23.5864 21.7441C23.7082 21.7949 23.8389 21.821 23.9709 21.821C24.1029 21.821 24.2336 21.7949 24.3555 21.7441C24.4774 21.6933 24.588 21.6189 24.6809 21.5252L28.5609 17.6352C29.3969 16.794 29.8661 15.6562 29.8661 14.4702C29.8661 13.2842 29.3969 12.1464 28.5609 11.3052ZM16.7009 23.1652C16.7944 23.2579 16.9052 23.3312 17.027 23.381C17.1489 23.4307 17.2793 23.456 17.4109 23.4552C17.5425 23.456 17.673 23.4307 17.7948 23.381C17.9167 23.3312 18.0275 23.2579 18.1209 23.1652L23.0409 18.2452C23.2292 18.0569 23.335 17.8015 23.335 17.5352C23.335 17.2689 23.2292 17.0135 23.0409 16.8252C22.8526 16.6369 22.5972 16.5311 22.3309 16.5311C22.0646 16.5311 21.8092 16.6369 21.6209 16.8252L16.7009 21.7452C16.6072 21.8382 16.5328 21.9488 16.482 22.0706C16.4313 22.1925 16.4051 22.3232 16.4051 22.4552C16.4051 22.5872 16.4313 22.7179 16.482 22.8398C16.5328 22.9616 16.6072 23.0722 16.7009 23.1652Z" fill="#FC9F32"/>
</svg>
